<svg width="192" height="39" viewBox="0 0 192 39" fill="none" xmlns="http://www.w3.org/2000/svg">
<g filter="url(#filter0_dd_31_3)">
<mask id="path-1-outside-1_31_3" maskUnits="userSpaceOnUse" x="3" y="-1" width="186" height="33" fill="black">
<rect fill="white" x="3" y="-1" width="186" height="33"/>
<path d="M4.52841 30V0.90909H16.1761C18.3163 0.90909 20.1013 1.22633 21.5312 1.8608C22.9612 2.49527 24.036 3.37595 24.7557 4.50284C25.4754 5.62027 25.8352 6.90814 25.8352 8.36648C25.8352 9.50284 25.608 10.5019 25.1534 11.3636C24.6989 12.2159 24.0739 12.9167 23.2784 13.4659C22.4924 14.0057 21.5928 14.3892 20.5795 14.6165V14.9006C21.6875 14.9479 22.7244 15.2604 23.6903 15.8381C24.6657 16.4157 25.4564 17.2254 26.0625 18.267C26.6686 19.2992 26.9716 20.5303 26.9716 21.9602C26.9716 23.5038 26.5881 24.8816 25.821 26.0938C25.0634 27.2964 23.9413 28.2481 22.4545 28.9489C20.9678 29.6496 19.1354 30 16.9574 30H4.52841ZM10.679 24.9716H15.6932C17.4072 24.9716 18.6572 24.6449 19.4432 23.9915C20.2292 23.3286 20.6222 22.4479 20.6222 21.3494C20.6222 20.5445 20.428 19.8343 20.0398 19.2188C19.6515 18.6032 19.0975 18.1203 18.3778 17.7699C17.6676 17.4195 16.8201 17.2443 15.8352 17.2443H10.679V24.9716ZM10.679 13.0824H15.2386C16.0814 13.0824 16.8295 12.9356 17.483 12.642C18.1458 12.339 18.6667 11.9129 19.0455 11.3636C19.4337 10.8144 19.6278 10.1562 19.6278 9.3892C19.6278 8.33807 19.2538 7.49053 18.5057 6.84659C17.767 6.20265 16.7159 5.88068 15.3523 5.88068H10.679V13.0824ZM30.9737 30V0.90909H50.576V5.98011H37.1243V12.9119H49.5675V17.983H37.1243V24.929H50.6328V30H30.9737Z"/>
<path d="M65.2102 30.4261C62.9754 30.4261 61.053 29.9527 59.4432 29.0057C57.8428 28.0492 56.6117 26.7235 55.75 25.0284C54.8977 23.3333 54.4716 21.3826 54.4716 19.1761C54.4716 16.9413 54.9025 14.9811 55.7642 13.2955C56.6354 11.6004 57.8712 10.2794 59.4716 9.33239C61.072 8.37595 62.9754 7.89773 65.1818 7.89773C67.0852 7.89773 68.7519 8.24337 70.1818 8.93466C71.6117 9.62595 72.7434 10.5966 73.5767 11.8466C74.41 13.0966 74.8693 14.5644 74.9545 16.25H69.2443C69.0833 15.161 68.6572 14.285 67.9659 13.6222C67.2841 12.9498 66.3892 12.6136 65.2812 12.6136C64.3438 12.6136 63.5246 12.8693 62.8239 13.3807C62.1326 13.8826 61.5928 14.6165 61.2045 15.5824C60.8163 16.5483 60.6222 17.7178 60.6222 19.0909C60.6222 20.483 60.8116 21.6667 61.1903 22.642C61.5786 23.6174 62.1231 24.3608 62.8239 24.8722C63.5246 25.3835 64.3438 25.6392 65.2812 25.6392C65.9725 25.6392 66.5928 25.4972 67.142 25.2131C67.7008 24.929 68.16 24.517 68.5199 23.9773C68.8892 23.428 69.1307 22.7699 69.2443 22.0028H74.9545C74.8598 23.6695 74.4053 25.1373 73.5909 26.4062C72.786 27.6657 71.6733 28.6506 70.2528 29.3608C68.8324 30.071 67.1515 30.4261 65.2102 30.4261ZM88.6868 30.4261C86.4804 30.4261 84.5722 29.9574 82.9624 29.0199C81.362 28.0729 80.1262 26.7566 79.255 25.071C78.3838 23.3759 77.9482 21.411 77.9482 19.1761C77.9482 16.9223 78.3838 14.9527 79.255 13.267C80.1262 11.572 81.362 10.2557 82.9624 9.31818C84.5722 8.37121 86.4804 7.89773 88.6868 7.89773C90.8932 7.89773 92.7966 8.37121 94.397 9.31818C96.0069 10.2557 97.2474 11.572 98.1186 13.267C98.9898 14.9527 99.4254 16.9223 99.4254 19.1761C99.4254 21.411 98.9898 23.3759 98.1186 25.071C97.2474 26.7566 96.0069 28.0729 94.397 29.0199C92.7966 29.9574 90.8932 30.4261 88.6868 30.4261ZM88.7152 25.7386C89.719 25.7386 90.5571 25.4545 91.2294 24.8864C91.9018 24.3087 92.4084 23.5227 92.7493 22.5284C93.0997 21.5341 93.2749 20.4025 93.2749 19.1335C93.2749 17.8646 93.0997 16.733 92.7493 15.7386C92.4084 14.7443 91.9018 13.9583 91.2294 13.3807C90.5571 12.803 89.719 12.5142 88.7152 12.5142C87.7019 12.5142 86.8497 12.803 86.1584 13.3807C85.4766 13.9583 84.9605 14.7443 84.6101 15.7386C84.2692 16.733 84.0987 17.8646 84.0987 19.1335C84.0987 20.4025 84.2692 21.5341 84.6101 22.5284C84.9605 23.5227 85.4766 24.3087 86.1584 24.8864C86.8497 25.4545 87.7019 25.7386 88.7152 25.7386ZM109.411 17.3864V30H103.36V8.18182H109.127V12.0312H109.383C109.866 10.7623 110.675 9.75852 111.812 9.01989C112.948 8.27178 114.326 7.89773 115.945 7.89773C117.46 7.89773 118.781 8.22917 119.908 8.89205C121.035 9.55492 121.911 10.5019 122.536 11.733C123.161 12.9545 123.474 14.4129 123.474 16.108V30H117.423V17.1875C117.432 15.8523 117.091 14.8106 116.4 14.0625C115.709 13.3049 114.757 12.9261 113.545 12.9261C112.73 12.9261 112.011 13.1013 111.386 13.4517C110.77 13.8021 110.287 14.3134 109.937 14.9858C109.596 15.6487 109.421 16.4489 109.411 17.3864ZM138.186 30.4261C135.942 30.4261 134.01 29.9716 132.391 29.0625C130.781 28.1439 129.54 26.8466 128.669 25.1705C127.798 23.4848 127.362 21.4915 127.362 19.1903C127.362 16.946 127.798 14.9763 128.669 13.2812C129.54 11.5862 130.767 10.2652 132.348 9.31818C133.939 8.37121 135.804 7.89773 137.945 7.89773C139.384 7.89773 140.724 8.12973 141.964 8.59375C143.214 9.0483 144.304 9.73485 145.232 10.6534C146.169 11.572 146.898 12.7273 147.419 14.1193C147.94 15.5019 148.2 17.1212 148.2 18.9773V20.6392H129.777V16.8892H142.504C142.504 16.018 142.315 15.2462 141.936 14.5739C141.557 13.9015 141.032 13.3759 140.359 12.9972C139.696 12.6089 138.925 12.4148 138.044 12.4148C137.125 12.4148 136.311 12.6278 135.601 13.054C134.9 13.4706 134.351 14.0341 133.953 14.7443C133.555 15.4451 133.352 16.2263 133.342 17.0881V20.6534C133.342 21.733 133.541 22.6657 133.939 23.4517C134.346 24.2377 134.919 24.8438 135.658 25.2699C136.396 25.696 137.272 25.9091 138.286 25.9091C138.958 25.9091 139.573 25.8144 140.132 25.625C140.691 25.4356 141.169 25.1515 141.567 24.7727C141.964 24.3939 142.268 23.9299 142.476 23.3807L148.072 23.75C147.788 25.0947 147.206 26.2689 146.325 27.2727C145.454 28.267 144.327 29.0436 142.945 29.6023C141.571 30.1515 139.985 30.4261 138.186 30.4261ZM162.007 30.4261C159.772 30.4261 157.85 29.9527 156.24 29.0057C154.64 28.0492 153.409 26.7235 152.547 25.0284C151.695 23.3333 151.268 21.3826 151.268 19.1761C151.268 16.9413 151.699 14.9811 152.561 13.2955C153.432 11.6004 154.668 10.2794 156.268 9.33239C157.869 8.37595 159.772 7.89773 161.979 7.89773C163.882 7.89773 165.549 8.24337 166.979 8.93466C168.409 9.62595 169.54 10.5966 170.374 11.8466C171.207 13.0966 171.666 14.5644 171.751 16.25H166.041C165.88 15.161 165.454 14.285 164.763 13.6222C164.081 12.9498 163.186 12.6136 162.078 12.6136C161.141 12.6136 160.321 12.8693 159.621 13.3807C158.929 13.8826 158.39 14.6165 158.001 15.5824C157.613 16.5483 157.419 17.7178 157.419 19.0909C157.419 20.483 157.608 21.6667 157.987 22.642C158.375 23.6174 158.92 24.3608 159.621 24.8722C160.321 25.3835 161.141 25.6392 162.078 25.6392C162.769 25.6392 163.39 25.4972 163.939 25.2131C164.498 24.929 164.957 24.517 165.317 23.9773C165.686 23.428 165.928 22.7699 166.041 22.0028H171.751C171.657 23.6695 171.202 25.1373 170.388 26.4062C169.583 27.6657 168.47 28.6506 167.05 29.3608C165.629 30.071 163.948 30.4261 162.007 30.4261ZM187.231 8.18182V12.7273H174.092V8.18182H187.231ZM177.075 2.95455H183.126V23.2955C183.126 23.8542 183.211 24.2898 183.381 24.6023C183.552 24.9053 183.789 25.1184 184.092 25.2415C184.404 25.3646 184.764 25.4261 185.171 25.4261C185.455 25.4261 185.739 25.4025 186.023 25.3551C186.308 25.2983 186.525 25.2557 186.677 25.2273L187.629 29.7301C187.326 29.8248 186.899 29.9337 186.35 30.0568C185.801 30.1894 185.133 30.2699 184.347 30.2983C182.889 30.3551 181.611 30.161 180.512 29.7159C179.423 29.2708 178.576 28.5795 177.969 27.642C177.363 26.7045 177.065 25.5208 177.075 24.0909V2.95455Z"/>
</mask>
<path d="M4.52841 30V0.90909H16.1761C18.3163 0.90909 20.1013 1.22633 21.5312 1.8608C22.9612 2.49527 24.036 3.37595 24.7557 4.50284C25.4754 5.62027 25.8352 6.90814 25.8352 8.36648C25.8352 9.50284 25.608 10.5019 25.1534 11.3636C24.6989 12.2159 24.0739 12.9167 23.2784 13.4659C22.4924 14.0057 21.5928 14.3892 20.5795 14.6165V14.9006C21.6875 14.9479 22.7244 15.2604 23.6903 15.8381C24.6657 16.4157 25.4564 17.2254 26.0625 18.267C26.6686 19.2992 26.9716 20.5303 26.9716 21.9602C26.9716 23.5038 26.5881 24.8816 25.821 26.0938C25.0634 27.2964 23.9413 28.2481 22.4545 28.9489C20.9678 29.6496 19.1354 30 16.9574 30H4.52841ZM10.679 24.9716H15.6932C17.4072 24.9716 18.6572 24.6449 19.4432 23.9915C20.2292 23.3286 20.6222 22.4479 20.6222 21.3494C20.6222 20.5445 20.428 19.8343 20.0398 19.2188C19.6515 18.6032 19.0975 18.1203 18.3778 17.7699C17.6676 17.4195 16.8201 17.2443 15.8352 17.2443H10.679V24.9716ZM10.679 13.0824H15.2386C16.0814 13.0824 16.8295 12.9356 17.483 12.642C18.1458 12.339 18.6667 11.9129 19.0455 11.3636C19.4337 10.8144 19.6278 10.1562 19.6278 9.3892C19.6278 8.33807 19.2538 7.49053 18.5057 6.84659C17.767 6.20265 16.7159 5.88068 15.3523 5.88068H10.679V13.0824ZM30.9737 30V0.90909H50.576V5.98011H37.1243V12.9119H49.5675V17.983H37.1243V24.929H50.6328V30H30.9737Z" fill="#F8C35E"/>
<path d="M65.2102 30.4261C62.9754 30.4261 61.053 29.9527 59.4432 29.0057C57.8428 28.0492 56.6117 26.7235 55.75 25.0284C54.8977 23.3333 54.4716 21.3826 54.4716 19.1761C54.4716 16.9413 54.9025 14.9811 55.7642 13.2955C56.6354 11.6004 57.8712 10.2794 59.4716 9.33239C61.072 8.37595 62.9754 7.89773 65.1818 7.89773C67.0852 7.89773 68.7519 8.24337 70.1818 8.93466C71.6117 9.62595 72.7434 10.5966 73.5767 11.8466C74.41 13.0966 74.8693 14.5644 74.9545 16.25H69.2443C69.0833 15.161 68.6572 14.285 67.9659 13.6222C67.2841 12.9498 66.3892 12.6136 65.2812 12.6136C64.3438 12.6136 63.5246 12.8693 62.8239 13.3807C62.1326 13.8826 61.5928 14.6165 61.2045 15.5824C60.8163 16.5483 60.6222 17.7178 60.6222 19.0909C60.6222 20.483 60.8116 21.6667 61.1903 22.642C61.5786 23.6174 62.1231 24.3608 62.8239 24.8722C63.5246 25.3835 64.3438 25.6392 65.2812 25.6392C65.9725 25.6392 66.5928 25.4972 67.142 25.2131C67.7008 24.929 68.16 24.517 68.5199 23.9773C68.8892 23.428 69.1307 22.7699 69.2443 22.0028H74.9545C74.8598 23.6695 74.4053 25.1373 73.5909 26.4062C72.786 27.6657 71.6733 28.6506 70.2528 29.3608C68.8324 30.071 67.1515 30.4261 65.2102 30.4261ZM88.6868 30.4261C86.4804 30.4261 84.5722 29.9574 82.9624 29.0199C81.362 28.0729 80.1262 26.7566 79.255 25.071C78.3838 23.3759 77.9482 21.411 77.9482 19.1761C77.9482 16.9223 78.3838 14.9527 79.255 13.267C80.1262 11.572 81.362 10.2557 82.9624 9.31818C84.5722 8.37121 86.4804 7.89773 88.6868 7.89773C90.8932 7.89773 92.7966 8.37121 94.397 9.31818C96.0069 10.2557 97.2474 11.572 98.1186 13.267C98.9898 14.9527 99.4254 16.9223 99.4254 19.1761C99.4254 21.411 98.9898 23.3759 98.1186 25.071C97.2474 26.7566 96.0069 28.0729 94.397 29.0199C92.7966 29.9574 90.8932 30.4261 88.6868 30.4261ZM88.7152 25.7386C89.719 25.7386 90.5571 25.4545 91.2294 24.8864C91.9018 24.3087 92.4084 23.5227 92.7493 22.5284C93.0997 21.5341 93.2749 20.4025 93.2749 19.1335C93.2749 17.8646 93.0997 16.733 92.7493 15.7386C92.4084 14.7443 91.9018 13.9583 91.2294 13.3807C90.5571 12.803 89.719 12.5142 88.7152 12.5142C87.7019 12.5142 86.8497 12.803 86.1584 13.3807C85.4766 13.9583 84.9605 14.7443 84.6101 15.7386C84.2692 16.733 84.0987 17.8646 84.0987 19.1335C84.0987 20.4025 84.2692 21.5341 84.6101 22.5284C84.9605 23.5227 85.4766 24.3087 86.1584 24.8864C86.8497 25.4545 87.7019 25.7386 88.7152 25.7386ZM109.411 17.3864V30H103.36V8.18182H109.127V12.0312H109.383C109.866 10.7623 110.675 9.75852 111.812 9.01989C112.948 8.27178 114.326 7.89773 115.945 7.89773C117.46 7.89773 118.781 8.22917 119.908 8.89205C121.035 9.55492 121.911 10.5019 122.536 11.733C123.161 12.9545 123.474 14.4129 123.474 16.108V30H117.423V17.1875C117.432 15.8523 117.091 14.8106 116.4 14.0625C115.709 13.3049 114.757 12.9261 113.545 12.9261C112.73 12.9261 112.011 13.1013 111.386 13.4517C110.77 13.8021 110.287 14.3134 109.937 14.9858C109.596 15.6487 109.421 16.4489 109.411 17.3864ZM138.186 30.4261C135.942 30.4261 134.01 29.9716 132.391 29.0625C130.781 28.1439 129.54 26.8466 128.669 25.1705C127.798 23.4848 127.362 21.4915 127.362 19.1903C127.362 16.946 127.798 14.9763 128.669 13.2812C129.54 11.5862 130.767 10.2652 132.348 9.31818C133.939 8.37121 135.804 7.89773 137.945 7.89773C139.384 7.89773 140.724 8.12973 141.964 8.59375C143.214 9.0483 144.304 9.73485 145.232 10.6534C146.169 11.572 146.898 12.7273 147.419 14.1193C147.94 15.5019 148.2 17.1212 148.2 18.9773V20.6392H129.777V16.8892H142.504C142.504 16.018 142.315 15.2462 141.936 14.5739C141.557 13.9015 141.032 13.3759 140.359 12.9972C139.696 12.6089 138.925 12.4148 138.044 12.4148C137.125 12.4148 136.311 12.6278 135.601 13.054C134.9 13.4706 134.351 14.0341 133.953 14.7443C133.555 15.4451 133.352 16.2263 133.342 17.0881V20.6534C133.342 21.733 133.541 22.6657 133.939 23.4517C134.346 24.2377 134.919 24.8438 135.658 25.2699C136.396 25.696 137.272 25.9091 138.286 25.9091C138.958 25.9091 139.573 25.8144 140.132 25.625C140.691 25.4356 141.169 25.1515 141.567 24.7727C141.964 24.3939 142.268 23.9299 142.476 23.3807L148.072 23.75C147.788 25.0947 147.206 26.2689 146.325 27.2727C145.454 28.267 144.327 29.0436 142.945 29.6023C141.571 30.1515 139.985 30.4261 138.186 30.4261ZM162.007 30.4261C159.772 30.4261 157.85 29.9527 156.24 29.0057C154.64 28.0492 153.409 26.7235 152.547 25.0284C151.695 23.3333 151.268 21.3826 151.268 19.1761C151.268 16.9413 151.699 14.9811 152.561 13.2955C153.432 11.6004 154.668 10.2794 156.268 9.33239C157.869 8.37595 159.772 7.89773 161.979 7.89773C163.882 7.89773 165.549 8.24337 166.979 8.93466C168.409 9.62595 169.54 10.5966 170.374 11.8466C171.207 13.0966 171.666 14.5644 171.751 16.25H166.041C165.88 15.161 165.454 14.285 164.763 13.6222C164.081 12.9498 163.186 12.6136 162.078 12.6136C161.141 12.6136 160.321 12.8693 159.621 13.3807C158.929 13.8826 158.39 14.6165 158.001 15.5824C157.613 16.5483 157.419 17.7178 157.419 19.0909C157.419 20.483 157.608 21.6667 157.987 22.642C158.375 23.6174 158.92 24.3608 159.621 24.8722C160.321 25.3835 161.141 25.6392 162.078 25.6392C162.769 25.6392 163.39 25.4972 163.939 25.2131C164.498 24.929 164.957 24.517 165.317 23.9773C165.686 23.428 165.928 22.7699 166.041 22.0028H171.751C171.657 23.6695 171.202 25.1373 170.388 26.4062C169.583 27.6657 168.47 28.6506 167.05 29.3608C165.629 30.071 163.948 30.4261 162.007 30.4261ZM187.231 8.18182V12.7273H174.092V8.18182H187.231ZM177.075 2.95455H183.126V23.2955C183.126 23.8542 183.211 24.2898 183.381 24.6023C183.552 24.9053 183.789 25.1184 184.092 25.2415C184.404 25.3646 184.764 25.4261 185.171 25.4261C185.455 25.4261 185.739 25.4025 186.023 25.3551C186.308 25.2983 186.525 25.2557 186.677 25.2273L187.629 29.7301C187.326 29.8248 186.899 29.9337 186.35 30.0568C185.801 30.1894 185.133 30.2699 184.347 30.2983C182.889 30.3551 181.611 30.161 180.512 29.7159C179.423 29.2708 178.576 28.5795 177.969 27.642C177.363 26.7045 177.065 25.5208 177.075 24.0909V2.95455Z" fill="black"/>
<path d="M4.52841 30H3.52841V31H4.52841V30ZM4.52841 0.90909V-0.09091H3.52841V0.90909H4.52841ZM21.5312 1.8608L21.1257 2.77486L21.5312 1.8608ZM24.7557 4.50284L23.9129 5.04109L23.915 5.04432L24.7557 4.50284ZM25.1534 11.3636L26.0358 11.8342L26.0379 11.8302L25.1534 11.3636ZM23.2784 13.4659L23.8445 14.2902L23.8466 14.2888L23.2784 13.4659ZM20.5795 14.6165L20.3607 13.6407L19.5795 13.8159V14.6165H20.5795ZM20.5795 14.9006H19.5795V15.8587L20.5368 15.8997L20.5795 14.9006ZM23.6903 15.8381L23.1771 16.6963L23.1808 16.6985L23.6903 15.8381ZM26.0625 18.267L25.1981 18.7699L25.2002 18.7734L26.0625 18.267ZM25.821 26.0938L24.976 25.559L24.9749 25.5608L25.821 26.0938ZM22.4545 28.9489L22.0282 28.0443L22.4545 28.9489ZM10.679 24.9716H9.67898V25.9716H10.679V24.9716ZM19.4432 23.9915L20.0825 24.7605L20.0879 24.7559L19.4432 23.9915ZM20.0398 19.2188L19.194 19.7523L20.0398 19.2188ZM18.3778 17.7699L17.9354 18.6667L17.9401 18.669L18.3778 17.7699ZM10.679 17.2443V16.2443H9.67898V17.2443H10.679ZM10.679 13.0824H9.67898V14.0824H10.679V13.0824ZM17.483 12.642L17.8928 13.5542L17.8987 13.5515L17.483 12.642ZM19.0455 11.3636L18.2288 10.7864L18.2222 10.7959L19.0455 11.3636ZM18.5057 6.84659L17.8485 7.60038L17.8533 7.60449L18.5057 6.84659ZM10.679 5.88068V4.88068H9.67898V5.88068H10.679ZM5.52841 30V0.90909H3.52841V30H5.52841ZM4.52841 1.90909H16.1761V-0.09091H4.52841V1.90909ZM16.1761 1.90909C18.2249 1.90909 19.8613 2.21383 21.1257 2.77486L21.9368 0.946734C20.3414 0.238819 18.4076 -0.09091 16.1761 -0.09091V1.90909ZM21.1257 2.77486C22.4073 3.34353 23.3159 4.10625 23.9129 5.04109L25.5985 3.96459C24.7561 2.64564 23.515 1.647 21.9368 0.946734L21.1257 2.77486ZM23.915 5.04432C24.5207 5.98473 24.8352 7.0808 24.8352 8.36648H26.8352C26.8352 6.73549 26.4301 5.2558 25.5964 3.96136L23.915 5.04432ZM24.8352 8.36648C24.8352 9.36736 24.6359 10.2014 24.2689 10.8971L26.0379 11.8302C26.58 10.8024 26.8352 9.63832 26.8352 8.36648H24.8352ZM24.2711 10.893C23.8917 11.6044 23.3744 12.1844 22.7102 12.643L23.8466 14.2888C24.7733 13.649 25.5061 12.8274 26.0358 11.8342L24.2711 10.893ZM22.7123 12.6416C22.0404 13.103 21.2607 13.4388 20.3607 13.6407L20.7984 15.5922C21.9249 15.3396 22.9445 14.9083 23.8445 14.2902L22.7123 12.6416ZM19.5795 14.6165V14.9006H21.5795V14.6165H19.5795ZM20.5368 15.8997C21.4761 15.9398 22.3517 16.2027 23.1771 16.6963L24.2036 14.9798C23.0972 14.3182 21.8989 13.956 20.6222 13.9015L20.5368 15.8997ZM23.1808 16.6985C24 17.1837 24.6723 17.8661 25.1982 18.7699L26.9268 17.7642C26.2406 16.5846 25.3314 15.6478 24.1999 14.9776L23.1808 16.6985ZM25.2002 18.7734C25.7 19.6246 25.9716 20.6735 25.9716 21.9602H27.9716C27.9716 20.3871 27.6372 18.9739 26.9248 17.7607L25.2002 18.7734ZM25.9716 21.9602C25.9716 23.3295 25.6341 24.5191 24.976 25.559L26.666 26.6285C27.5421 25.2442 27.9716 23.6781 27.9716 21.9602H25.9716ZM24.9749 25.5608C24.3341 26.5781 23.37 27.4119 22.0282 28.0443L22.8809 29.8534C24.5126 29.0844 25.7928 28.0147 26.6671 26.6267L24.9749 25.5608ZM22.0282 28.0443C20.7108 28.6653 19.0337 29 16.9574 29V31C19.2371 31 21.2248 30.634 22.8809 29.8534L22.0282 28.0443ZM16.9574 29H4.52841V31H16.9574V29ZM10.679 25.9716H15.6932V23.9716H10.679V25.9716ZM15.6932 25.9716C17.4954 25.9716 19.0302 25.6352 20.0825 24.7605L18.8039 23.2225C18.2842 23.6545 17.319 23.9716 15.6932 23.9716V25.9716ZM20.0879 24.7559C21.1161 23.8887 21.6222 22.7197 21.6222 21.3494H19.6222C19.6222 22.1762 19.3422 22.7685 18.7985 23.227L20.0879 24.7559ZM21.6222 21.3494C21.6222 20.3764 21.3851 19.4771 20.8856 18.6852L19.194 19.7523C19.471 20.1914 19.6222 20.7126 19.6222 21.3494H21.6222ZM20.8856 18.6852C20.3882 17.8967 19.6854 17.2942 18.8156 16.8708L17.9401 18.669C18.5097 18.9463 18.9148 19.3097 19.194 19.7523L20.8856 18.6852ZM18.8203 16.8731C17.943 16.4403 16.937 16.2443 15.8352 16.2443V18.2443C16.7032 18.2443 17.3922 18.3987 17.9354 18.6667L18.8203 16.8731ZM15.8352 16.2443H10.679V18.2443H15.8352V16.2443ZM9.67898 17.2443V24.9716H11.679V17.2443H9.67898ZM10.679 14.0824H15.2386V12.0824H10.679V14.0824ZM15.2386 14.0824C16.198 14.0824 17.0897 13.915 17.8928 13.5542L17.0731 11.7299C16.5693 11.9562 15.9648 12.0824 15.2386 12.0824V14.0824ZM17.8987 13.5515C18.7101 13.1806 19.378 12.6428 19.8687 11.9314L18.2222 10.7959C17.9553 11.183 17.5816 11.4974 17.0672 11.7326L17.8987 13.5515ZM19.862 11.9409C20.3859 11.1998 20.6278 10.3329 20.6278 9.38921H18.6278C18.6278 9.97961 18.4815 10.429 18.2289 10.7864L19.862 11.9409ZM20.6278 9.38921C20.6278 8.06835 20.1426 6.93618 19.1581 6.08869L17.8533 7.60449C18.3649 8.04488 18.6278 8.60779 18.6278 9.38921H20.6278ZM19.1628 6.09282C18.1817 5.23751 16.8632 4.88068 15.3523 4.88068V6.88068C16.5686 6.88068 17.3524 7.1678 17.8485 7.60036L19.1628 6.09282ZM15.3523 4.88068H10.679V6.88068H15.3523V4.88068ZM9.67898 5.88068V13.0824H11.679V5.88068H9.67898ZM30.9737 30H29.9737V31H30.9737V30ZM30.9737 0.90909V-0.09091H29.9737V0.90909H30.9737ZM50.576 0.90909H51.576V-0.09091H50.576V0.90909ZM50.576 5.98011V6.98011H51.576V5.98011H50.576ZM37.1243 5.98011V4.98011H36.1243V5.98011H37.1243ZM37.1243 12.9119H36.1243V13.9119H37.1243V12.9119ZM49.5675 12.9119H50.5675V11.9119H49.5675V12.9119ZM49.5675 17.983V18.983H50.5675V17.983H49.5675ZM37.1243 17.983V16.983H36.1243V17.983H37.1243ZM37.1243 24.929H36.1243V25.929H37.1243V24.929ZM50.6328 24.929H51.6328V23.929H50.6328V24.929ZM50.6328 30V31H51.6328V30H50.6328ZM31.9737 30V0.90909H29.9737V30H31.9737ZM30.9737 1.90909H50.576V-0.09091H30.9737V1.90909ZM49.576 0.90909V5.98011H51.576V0.90909H49.576ZM50.576 4.98011H37.1243V6.98011H50.576V4.98011ZM36.1243 5.98011V12.9119H38.1243V5.98011H36.1243ZM37.1243 13.9119H49.5675V11.9119H37.1243V13.9119ZM48.5675 12.9119V17.983H50.5675V12.9119H48.5675ZM49.5675 16.983H37.1243V18.983H49.5675V16.983ZM36.1243 17.983V24.929H38.1243V17.983H36.1243ZM37.1243 25.929H50.6328V23.929H37.1243V25.929ZM49.6328 24.929V30H51.6328V24.929H49.6328ZM50.6328 29H30.9737V31H50.6328V29ZM59.4432 29.0057L58.9302 29.8641L58.9362 29.8676L59.4432 29.0057ZM55.75 25.0284L54.8566 25.4776L54.8586 25.4816L55.75 25.0284ZM55.7642 13.2955L54.8748 12.8383L54.8738 12.8403L55.7642 13.2955ZM59.4716 9.33239L59.9808 10.193L59.9846 10.1908L59.4716 9.33239ZM70.1818 8.93466L70.6171 8.03435L70.1818 8.93466ZM73.5767 11.8466L72.7447 12.4013L73.5767 11.8466ZM74.9545 16.25V17.25H76.0064L75.9533 16.1995L74.9545 16.25ZM69.2443 16.25L68.2551 16.3962L68.3813 17.25H69.2443V16.25ZM67.9659 13.6222L67.2637 14.3343L67.2738 14.3439L67.9659 13.6222ZM62.8239 13.3807L63.4114 14.1899L63.4133 14.1885L62.8239 13.3807ZM61.1903 22.642L60.2581 23.0041L60.2612 23.0119L61.1903 22.642ZM62.8239 24.8722L63.4133 24.0644L62.8239 24.8722ZM67.142 25.2131L66.6888 24.3217L66.6826 24.3249L67.142 25.2131ZM68.5199 23.9773L67.69 23.4193L67.6878 23.4226L68.5199 23.9773ZM69.2443 22.0028V21.0028H68.3816L68.2551 21.8563L69.2443 22.0028ZM74.9545 22.0028L75.9529 22.0596L76.013 21.0028H74.9545V22.0028ZM73.5909 26.4062L72.7493 25.8661L72.7483 25.8677L73.5909 26.4062ZM70.2528 29.3608L69.8056 28.4664L70.2528 29.3608ZM65.2102 29.4261C63.1185 29.4261 61.3787 28.984 59.9502 28.1437L58.9362 29.8676C60.7274 30.9213 62.8323 31.4261 65.2102 31.4261V29.4261ZM59.9562 28.1473C58.521 27.2896 57.4195 26.1058 56.6414 24.5752L54.8586 25.4816C55.804 27.3412 57.1646 28.8089 58.9302 29.8641L59.9562 28.1473ZM56.6434 24.5792C55.8718 23.0446 55.4716 21.252 55.4716 19.1761H53.4716C53.4716 21.5132 53.9236 23.6221 54.8566 25.4776L56.6434 24.5792ZM55.4716 19.1761C55.4716 17.0711 55.8768 15.272 56.6546 13.7507L54.8738 12.8403C53.9281 14.6901 53.4716 16.8115 53.4716 19.1761H55.4716ZM56.6536 13.7526C57.4409 12.2207 58.5469 11.0415 59.9808 10.193L58.9623 8.47176C57.1955 9.51721 55.8299 10.98 54.8748 12.8383L56.6536 13.7526ZM59.9846 10.1908C61.4035 9.34277 63.1226 8.89773 65.1818 8.89773V6.89773C62.8281 6.89773 60.7404 7.40912 58.9586 8.474L59.9846 10.1908ZM65.1818 8.89773C66.964 8.89773 68.4767 9.22104 69.7466 9.83497L70.6171 8.03435C69.0271 7.2657 67.2064 6.89773 65.1818 6.89773V8.89773ZM69.7466 9.83497C71.0253 10.4532 72.0161 11.3085 72.7447 12.4013L74.4088 11.2919C73.4706 9.88473 72.1982 8.79872 70.6171 8.03435L69.7466 9.83497ZM72.7447 12.4013C73.4661 13.4834 73.8785 14.7722 73.9558 16.3005L75.9533 16.1995C75.8601 14.3566 75.354 12.7097 74.4088 11.2919L72.7447 12.4013ZM74.9545 15.25H69.2443V17.25H74.9545V15.25ZM70.2336 16.1038C70.0452 14.8296 69.5328 13.7392 68.658 12.9004L67.2738 14.3439C67.7816 14.8309 68.1215 15.4924 68.2551 16.3962L70.2336 16.1038ZM68.6681 12.9101C67.7696 12.0242 66.6074 11.6136 65.2812 11.6136V13.6136C66.171 13.6136 66.7986 13.8755 67.2638 14.3342L68.6681 12.9101ZM65.2812 11.6136C64.1499 11.6136 63.1204 11.9264 62.2344 12.5729L63.4133 14.1885C63.9289 13.8123 64.5376 13.6136 65.2812 13.6136V11.6136ZM62.2364 12.5715C61.3626 13.2059 60.7197 14.1073 60.2767 15.2094L62.1324 15.9553C62.4659 15.1257 62.9026 14.5593 63.4114 14.1899L62.2364 12.5715ZM60.2767 15.2094C59.8282 16.3251 59.6222 17.6286 59.6222 19.0909H61.6222C61.6222 17.807 61.8043 16.7715 62.1324 15.9553L60.2767 15.2094ZM59.6222 19.0909C59.6222 20.5682 59.8224 21.882 60.2582 23.0041L62.1225 22.28C61.8007 21.4513 61.6222 20.3977 61.6222 19.0909H59.6222ZM60.2612 23.0119C60.7044 24.1253 61.3522 25.0362 62.2344 25.68L63.4133 24.0644C62.8941 23.6854 62.4527 23.1095 62.1194 22.2722L60.2612 23.0119ZM62.2344 25.68C63.1204 26.3265 64.1499 26.6392 65.2812 26.6392V24.6392C64.5376 24.6392 63.9289 24.4406 63.4133 24.0644L62.2344 25.68ZM65.2812 26.6392C66.1133 26.6392 66.8942 26.4671 67.6015 26.1013L66.6826 24.3249C66.2914 24.5272 65.8318 24.6392 65.2812 24.6392V26.6392ZM67.5953 26.1045C68.3126 25.7397 68.9003 25.2094 69.3519 24.532L67.6878 23.4226C67.4198 23.8247 67.0889 24.1182 66.6888 24.3217L67.5953 26.1045ZM69.3497 24.5353C69.8152 23.843 70.1018 23.0386 70.2335 22.1494L68.2551 21.8563C68.1596 22.5011 67.9632 23.0131 67.69 23.4193L69.3497 24.5353ZM69.2443 23.0028H74.9545V21.0028H69.2443V23.0028ZM73.9562 21.9461C73.8702 23.4597 73.461 24.7572 72.7493 25.8661L74.4325 26.9464C75.3496 25.5174 75.8495 23.8793 75.9529 22.0596L73.9562 21.9461ZM72.7483 25.8677C72.0468 26.9654 71.0751 27.8316 69.8056 28.4664L70.7001 30.2552C72.2715 29.4695 73.5252 28.366 74.4335 26.9448L72.7483 25.8677ZM69.8056 28.4664C68.5515 29.0934 67.0302 29.4261 65.2102 29.4261V31.4261C67.2728 31.4261 69.1133 31.0486 70.7001 30.2552L69.8056 28.4664ZM82.9624 29.0199L82.4531 29.8805L82.4591 29.884L82.9624 29.0199ZM79.255 25.071L78.3656 25.5281L78.3666 25.5302L79.255 25.071ZM79.255 13.267L80.1433 13.7262L80.1444 13.7242L79.255 13.267ZM82.9624 9.31818L83.4678 10.181L83.4694 10.1801L82.9624 9.31818ZM94.397 9.31818L93.8878 10.1788L93.8938 10.1823L94.397 9.31818ZM98.1186 13.267L97.2292 13.7242L97.2302 13.7262L98.1186 13.267ZM98.1186 25.071L99.007 25.5302L99.008 25.5281L98.1186 25.071ZM94.397 29.0199L94.9025 29.8827L94.904 29.8818L94.397 29.0199ZM91.2294 24.8864L91.8749 25.6502L91.8811 25.6449L91.2294 24.8864ZM92.7493 22.5284L91.8061 22.196L91.8033 22.2041L92.7493 22.5284ZM92.7493 15.7386L91.8033 16.063L91.8061 16.071L92.7493 15.7386ZM86.1584 13.3807L85.5172 12.6133L85.512 12.6177L86.1584 13.3807ZM84.6101 15.7386L83.6669 15.4063L83.6641 15.4143L84.6101 15.7386ZM84.6101 22.5284L83.6641 22.8527L83.6669 22.8608L84.6101 22.5284ZM86.1584 24.8864L85.512 25.6493L85.5177 25.6542L85.5234 25.6589L86.1584 24.8864ZM88.6868 29.4261C86.6244 29.4261 84.8966 28.9891 83.4656 28.1557L82.4591 29.884C84.2478 30.9257 86.3363 31.4261 88.6868 31.4261V29.4261ZM83.4716 28.1593C82.0362 27.3099 80.9302 26.1343 80.1433 24.6119L78.3666 25.5302C79.3222 27.3789 80.6878 28.8359 82.4531 29.8805L83.4716 28.1593ZM80.1444 24.6139C79.3574 23.0828 78.9482 21.2794 78.9482 19.1761H76.9482C76.9482 21.5426 77.4101 23.6691 78.3656 25.5281L80.1444 24.6139ZM78.9482 19.1761C78.9482 17.0523 79.3581 15.2455 80.1433 13.7262L78.3666 12.8079C77.4095 14.6598 76.9482 16.7924 76.9482 19.1761H78.9482ZM80.1444 13.7242C80.9313 12.1931 82.0361 11.0198 83.4678 10.181L82.4569 8.45533C80.6879 9.49161 79.3211 10.9508 78.3656 12.8099L80.1444 13.7242ZM83.4694 10.1801C84.8997 9.33874 86.6261 8.89773 88.6868 8.89773V6.89773C86.3346 6.89773 84.2447 7.40368 82.4553 8.45625L83.4694 10.1801ZM88.6868 8.89773C90.7477 8.89773 92.4682 9.33881 93.8878 10.1788L94.9063 8.45756C93.1251 7.40362 91.0387 6.89773 88.6868 6.89773V8.89773ZM93.8938 10.1823C95.3347 11.0215 96.4431 12.1947 97.2292 13.7242L99.008 12.8099C98.0517 10.9492 96.679 9.48989 94.9003 8.45403L93.8938 10.1823ZM97.2302 13.7262C98.0155 15.2455 98.4254 17.0523 98.4254 19.1761H100.425C100.425 16.7924 99.9641 14.6598 99.007 12.8079L97.2302 13.7262ZM98.4254 19.1761C98.4254 21.2794 98.0162 23.0828 97.2292 24.6139L99.008 25.5281C99.9635 23.6691 100.425 21.5426 100.425 19.1761H98.4254ZM97.2302 24.6119C96.4442 26.1328 95.3346 27.3082 93.89 28.158L94.904 29.8818C96.6792 28.8376 98.0506 27.3805 99.007 25.5302L97.2302 24.6119ZM93.8916 28.157C92.4713 28.989 90.7494 29.4261 88.6868 29.4261V31.4261C91.037 31.4261 93.122 30.9257 94.9025 29.8827L93.8916 28.157ZM88.7152 26.7386C89.9201 26.7386 90.9969 26.3921 91.8749 25.6502L90.5839 24.1226C90.1172 24.517 89.5179 24.7386 88.7152 24.7386V26.7386ZM91.8811 25.6449C92.7116 24.9313 93.3074 23.9839 93.6952 22.8527L91.8033 22.2041C91.5094 23.0615 91.0919 23.6861 90.5777 24.1279L91.8811 25.6449ZM93.6924 22.8608C94.0872 21.7404 94.2749 20.4933 94.2749 19.1335H92.2749C92.2749 20.3116 92.1121 21.3277 91.8061 22.1961L93.6924 22.8608ZM94.2749 19.1335C94.2749 17.7737 94.0872 16.5266 93.6924 15.4063L91.8061 16.071C92.1121 16.9393 92.2749 17.9554 92.2749 19.1335H94.2749ZM93.6952 15.4143C93.3074 14.2831 92.7116 13.3357 91.8811 12.6222L90.5777 14.1392C91.0919 14.581 91.5094 15.2055 91.8033 16.063L93.6952 15.4143ZM91.8811 12.6222C91.0033 11.8681 89.9244 11.5142 88.7152 11.5142V13.5142C89.5136 13.5142 90.1108 13.738 90.5777 14.1392L91.8811 12.6222ZM88.7152 11.5142C87.4986 11.5142 86.4108 11.8666 85.5172 12.6133L86.7996 14.148C87.2885 13.7395 87.9052 13.5142 88.7152 13.5142V11.5142ZM85.512 12.6177C84.6722 13.3292 84.0656 14.2749 83.6669 15.4063L85.5532 16.071C85.8553 15.2137 86.2809 14.5875 86.8048 14.1437L85.512 12.6177ZM83.6641 15.4143C83.2809 16.5321 83.0987 17.7764 83.0987 19.1335H85.0987C85.0987 17.9528 85.2574 16.9338 85.556 16.063L83.6641 15.4143ZM83.0987 19.1335C83.0987 20.4907 83.2809 21.735 83.6641 22.8527L85.556 22.2041C85.2574 21.3332 85.0987 20.3143 85.0987 19.1335H83.0987ZM83.6669 22.8608C84.0656 23.9921 84.6722 24.9379 85.512 25.6493L86.8048 24.1234C86.2809 23.6795 85.8553 23.0533 85.5532 22.1961L83.6669 22.8608ZM85.5234 25.6589C86.4172 26.3935 87.5028 26.7386 88.7152 26.7386V24.7386C87.9011 24.7386 87.2821 24.5156 86.7933 24.1138L85.5234 25.6589ZM109.411 17.3864L108.411 17.3763V17.3864H109.411ZM109.411 30V31H110.411V30H109.411ZM103.36 30H102.36V31H103.36V30ZM103.36 8.18182V7.18182H102.36V8.18182H103.36ZM109.127 8.18182H110.127V7.18182H109.127V8.18182ZM109.127 12.0312H108.127V13.0312H109.127V12.0312ZM109.383 12.0312V13.0312H110.072L110.317 12.387L109.383 12.0312ZM111.812 9.01989L112.357 9.85834L112.362 9.85513L111.812 9.01989ZM119.908 8.89204L120.415 8.03011L119.908 8.89204ZM122.536 11.733L121.645 12.1856L121.646 12.1884L122.536 11.733ZM123.474 30V31H124.474V30H123.474ZM117.423 30H116.423V31H117.423V30ZM117.423 17.1875L116.423 17.1804V17.1875H117.423ZM116.4 14.0625L115.661 14.7366L115.665 14.7412L116.4 14.0625ZM111.386 13.4517L110.897 12.5794L110.891 12.5826L111.386 13.4517ZM109.937 14.9858L109.05 14.5236L109.048 14.5284L109.937 14.9858ZM108.411 17.3864V30H110.411V17.3864H108.411ZM109.411 29H103.36V31H109.411V29ZM104.36 30V8.18182H102.36V30H104.36ZM103.36 9.18182H109.127V7.18182H103.36V9.18182ZM108.127 8.18182V12.0312H110.127V8.18182H108.127ZM109.127 13.0312H109.383V11.0312H109.127V13.0312ZM110.317 12.387C110.725 11.3158 111.399 10.4812 112.357 9.85833L111.267 8.18144C109.952 9.03584 109.006 10.2088 108.448 11.6755L110.317 12.387ZM112.362 9.85513C113.306 9.23355 114.484 8.89773 115.945 8.89773V6.89773C114.168 6.89773 112.59 7.31001 111.262 8.18464L112.362 9.85513ZM115.945 8.89773C117.311 8.89773 118.451 9.19502 119.401 9.75398L120.415 8.03011C119.112 7.26331 117.61 6.89773 115.945 6.89773V8.89773ZM119.401 9.75398C120.354 10.3145 121.101 11.1149 121.645 12.1856L123.428 11.2803C122.721 9.88885 121.716 8.79539 120.415 8.03011L119.401 9.75398ZM121.646 12.1884C122.184 13.2397 122.474 14.5346 122.474 16.108H124.474C124.474 14.2911 124.139 12.6694 123.426 11.2775L121.646 12.1884ZM122.474 16.108V30H124.474V16.108H122.474ZM123.474 29H117.423V31H123.474V29ZM118.423 30V17.1875H116.423V30H118.423ZM118.423 17.1946C118.433 15.6866 118.046 14.3707 117.134 13.3838L115.665 14.7412C116.136 15.2505 116.431 16.0179 116.423 17.1804L118.423 17.1946ZM117.139 13.3884C116.223 12.3853 114.982 11.9261 113.545 11.9261V13.9261C114.532 13.9261 115.194 14.2245 115.661 14.7366L117.139 13.3884ZM113.545 11.9261C112.583 11.9261 111.69 12.1344 110.897 12.5794L111.875 14.324C112.331 14.0682 112.878 13.9261 113.545 13.9261V11.9261ZM110.891 12.5826C110.096 13.0349 109.483 13.6934 109.05 14.5237L110.824 15.4479C111.092 14.9335 111.444 14.5693 111.88 14.3208L110.891 12.5826ZM109.048 14.5284C108.619 15.3608 108.422 16.3222 108.411 17.3763L110.411 17.3965C110.419 16.5755 110.572 15.9365 110.826 15.4431L109.048 14.5284ZM132.391 29.0625L131.895 29.9311L131.901 29.9345L132.391 29.0625ZM128.669 25.1705L127.781 25.6296L127.782 25.6316L128.669 25.1705ZM128.669 13.2812L127.78 12.8241L128.669 13.2812ZM132.348 9.31818L131.837 8.45888L131.834 8.46023L132.348 9.31818ZM141.964 8.59375L141.614 9.53041L141.623 9.53354L141.964 8.59375ZM145.232 10.6534L144.528 11.3641L144.532 11.3677L145.232 10.6534ZM147.419 14.1193L146.482 14.4697L146.483 14.4718L147.419 14.1193ZM148.2 20.6392V21.6392H149.2V20.6392H148.2ZM129.777 20.6392H128.777V21.6392H129.777V20.6392ZM129.777 16.8892V15.8892H128.777V16.8892H129.777ZM142.504 16.8892V17.8892H143.504V16.8892H142.504ZM141.936 14.5739L141.065 15.0647V15.0647L141.936 14.5739ZM140.359 12.9972L139.854 13.86L139.861 13.8643L139.869 13.8684L140.359 12.9972ZM135.601 13.054L136.112 13.9135L136.115 13.9115L135.601 13.054ZM133.953 14.7443L134.823 15.2379L134.826 15.2329L133.953 14.7443ZM133.342 17.0881L132.342 17.0771V17.0881H133.342ZM133.939 23.4517L133.047 23.9032L133.051 23.9117L133.939 23.4517ZM140.132 25.625L139.811 24.6779L140.132 25.625ZM141.567 24.7727L140.877 24.0486L141.567 24.7727ZM142.476 23.3807L142.542 22.3829L141.803 22.3341L141.541 23.026L142.476 23.3807ZM148.072 23.75L149.051 23.9567L149.289 22.8281L148.138 22.7522L148.072 23.75ZM146.325 27.2727L145.574 26.6132L145.573 26.6137L146.325 27.2727ZM142.945 29.6023L143.316 30.5308L143.319 30.5294L142.945 29.6023ZM138.186 29.4261C136.078 29.4261 134.322 28.9998 132.88 28.1905L131.901 29.9345C133.698 30.9434 135.806 31.4261 138.186 31.4261V29.4261ZM132.886 28.1939C131.447 27.3726 130.341 26.2182 129.556 24.7093L127.782 25.6316C128.74 27.4749 130.115 28.9153 131.895 29.9311L132.886 28.1939ZM129.557 24.7113C128.774 23.1948 128.362 21.3653 128.362 19.1903H126.362C126.362 21.6176 126.822 23.7749 127.781 25.6296L129.557 24.7113ZM128.362 19.1903C128.362 17.0769 128.772 15.2689 129.558 13.7384L127.78 12.8241C126.824 14.6837 126.362 16.8152 126.362 19.1903H128.362ZM129.558 13.7384C130.347 12.2034 131.446 11.0238 132.862 10.1761L131.834 8.46023C130.087 9.50649 128.733 10.9689 127.78 12.8241L129.558 13.7384ZM132.859 10.1775C134.273 9.33616 135.956 8.89773 137.945 8.89773V6.89773C135.653 6.89773 133.605 7.40626 131.837 8.45889L132.859 10.1775ZM137.945 8.89773C139.275 8.89773 140.495 9.11176 141.614 9.53037L142.315 7.65713C140.953 7.14771 139.493 6.89773 137.945 6.89773V8.89773ZM141.623 9.53354C142.74 9.93969 143.705 10.5491 144.528 11.3641L145.935 9.94268C144.902 8.92061 143.689 8.1569 142.306 7.65396L141.623 9.53354ZM144.532 11.3677C145.352 12.171 146.006 13.1966 146.482 14.4697L148.356 13.7689C147.79 12.2579 146.987 10.973 145.931 9.93912L144.532 11.3677ZM146.483 14.4718C146.952 15.717 147.2 17.212 147.2 18.9773H149.2C149.2 17.0304 148.927 15.2868 148.355 13.7668L146.483 14.4718ZM147.2 18.9773V20.6392H149.2V18.9773H147.2ZM148.2 19.6392H129.777V21.6392H148.2V19.6392ZM130.777 20.6392V16.8892H128.777V20.6392H130.777ZM129.777 17.8892H142.504V15.8892H129.777V17.8892ZM143.504 16.8892C143.504 15.8686 143.281 14.9237 142.807 14.083L141.065 15.0647C141.349 15.5687 141.504 16.1674 141.504 16.8892H143.504ZM142.807 14.083C142.339 13.2515 141.682 12.5944 140.85 12.1259L139.869 13.8684C140.382 14.1575 140.776 14.5515 141.065 15.0647L142.807 14.083ZM140.865 12.1343C140.027 11.6438 139.076 11.4148 138.044 11.4148V13.4148C138.773 13.4148 139.366 13.5741 139.854 13.86L140.865 12.1343ZM138.044 11.4148C136.965 11.4148 135.969 11.6672 135.086 12.1965L136.115 13.9115C136.654 13.5885 137.286 13.4148 138.044 13.4148V11.4148ZM135.09 12.1944C134.238 12.7007 133.564 13.392 133.081 14.2557L134.826 15.2329C135.137 14.6762 135.562 14.2406 136.112 13.9135L135.09 12.1944ZM133.083 14.2507C132.596 15.1089 132.354 16.0582 132.342 17.0771L134.342 17.0991C134.35 16.3945 134.514 15.7812 134.823 15.2379L133.083 14.2507ZM132.342 17.0881V20.6534H134.342V17.0881H132.342ZM132.342 20.6534C132.342 21.855 132.564 22.9492 133.047 23.9032L134.831 23.0002C134.518 22.3822 134.342 21.6109 134.342 20.6534H132.342ZM133.051 23.9117C133.543 24.8606 134.247 25.6107 135.158 26.1361L136.157 24.4037C135.591 24.0768 135.15 23.6148 134.827 22.9917L133.051 23.9117ZM135.158 26.1361C136.075 26.6651 137.13 26.9091 138.286 26.9091V24.9091C137.415 24.9091 136.718 24.727 136.157 24.4037L135.158 26.1361ZM138.286 26.9091C139.052 26.9091 139.778 26.801 140.453 26.5721L139.811 24.6779C139.369 24.8278 138.864 24.9091 138.286 24.9091V26.9091ZM140.453 26.5721C141.139 26.3395 141.746 25.9831 142.256 25.4969L140.877 24.0486C140.592 24.3199 140.243 24.5317 139.811 24.6779L140.453 26.5721ZM142.256 25.4969C142.77 25.0078 143.153 24.4146 143.411 23.7353L141.541 23.026C141.382 23.4452 141.159 23.7801 140.877 24.0486L142.256 25.4969ZM142.41 24.3785L148.007 24.7478L148.138 22.7522L142.542 22.3829L142.41 24.3785ZM147.094 23.5433C146.844 24.7252 146.338 25.7423 145.574 26.6132L147.077 27.9322C148.074 26.7956 148.732 25.4642 149.051 23.9567L147.094 23.5433ZM145.573 26.6137C144.818 27.476 143.826 28.1675 142.57 28.6751L143.319 30.5294C144.828 29.9197 146.091 29.058 147.077 27.9317L145.573 26.6137ZM142.573 28.6738C141.341 29.1668 139.885 29.4261 138.186 29.4261V31.4261C140.086 31.4261 141.802 31.1363 143.316 30.5308L142.573 28.6738ZM156.24 29.0057L155.727 29.8641L155.733 29.8676L156.24 29.0057ZM152.547 25.0284L151.653 25.4776L151.655 25.4816L152.547 25.0284ZM152.561 13.2955L151.672 12.8383L151.671 12.8403L152.561 13.2955ZM156.268 9.33239L156.778 10.193L156.781 10.1908L156.268 9.33239ZM166.979 8.93466L167.414 8.03435L166.979 8.93466ZM170.374 11.8466L169.542 12.4013L170.374 11.8466ZM171.751 16.25V17.25H172.803L172.75 16.1995L171.751 16.25ZM166.041 16.25L165.052 16.3962L165.178 17.25H166.041V16.25ZM164.763 13.6222L164.061 14.3343L164.071 14.3439L164.763 13.6222ZM159.621 13.3807L160.208 14.1899L160.21 14.1885L159.621 13.3807ZM157.987 22.642L157.055 23.0041L157.058 23.0119L157.987 22.642ZM159.621 24.8722L160.21 24.0644L159.621 24.8722ZM163.939 25.2131L163.486 24.3217L163.479 24.3249L163.939 25.2131ZM165.317 23.9773L164.487 23.4193L164.485 23.4226L165.317 23.9773ZM166.041 22.0028V21.0028H165.178L165.052 21.8563L166.041 22.0028ZM171.751 22.0028L172.75 22.0596L172.81 21.0028H171.751V22.0028ZM170.388 26.4062L169.546 25.8661L169.545 25.8677L170.388 26.4062ZM167.05 29.3608L166.603 28.4664L167.05 29.3608ZM162.007 29.4261C159.915 29.4261 158.176 28.984 156.747 28.1437L155.733 29.8676C157.524 30.9213 159.629 31.4261 162.007 31.4261V29.4261ZM156.753 28.1473C155.318 27.2896 154.216 26.1058 153.438 24.5752L151.655 25.4816C152.601 27.3412 153.961 28.8089 155.727 29.8641L156.753 28.1473ZM153.44 24.5792C152.669 23.0446 152.268 21.252 152.268 19.1761H150.268C150.268 21.5132 150.721 23.6221 151.653 25.4776L153.44 24.5792ZM152.268 19.1761C152.268 17.0711 152.674 15.272 153.451 13.7507L151.671 12.8403C150.725 14.6901 150.268 16.8115 150.268 19.1761H152.268ZM153.45 13.7526C154.238 12.2207 155.344 11.0415 156.778 10.193L155.759 8.47176C153.992 9.51721 152.627 10.98 151.672 12.8383L153.45 13.7526ZM156.781 10.1908C158.2 9.34277 159.919 8.89773 161.979 8.89773V6.89773C159.625 6.89773 157.537 7.40912 155.755 8.474L156.781 10.1908ZM161.979 8.89773C163.761 8.89773 165.274 9.22104 166.543 9.83497L167.414 8.03435C165.824 7.2657 164.003 6.89773 161.979 6.89773V8.89773ZM166.543 9.83497C167.822 10.4532 168.813 11.3085 169.542 12.4013L171.206 11.2919C170.268 9.88473 168.995 8.79872 167.414 8.03435L166.543 9.83497ZM169.542 12.4013C170.263 13.4834 170.675 14.7722 170.753 16.3005L172.75 16.1995C172.657 14.3566 172.151 12.7097 171.206 11.2919L169.542 12.4013ZM171.751 15.25H166.041V17.25H171.751V15.25ZM167.03 16.1038C166.842 14.8296 166.33 13.7392 165.455 12.9004L164.071 14.3439C164.578 14.8309 164.918 15.4924 165.052 16.3962L167.03 16.1038ZM165.465 12.9101C164.566 12.0242 163.404 11.6136 162.078 11.6136V13.6136C162.968 13.6136 163.595 13.8755 164.061 14.3342L165.465 12.9101ZM162.078 11.6136C160.947 11.6136 159.917 11.9264 159.031 12.5729L160.21 14.1885C160.726 13.8123 161.334 13.6136 162.078 13.6136V11.6136ZM159.033 12.5715C158.159 13.2059 157.517 14.1073 157.074 15.2094L158.929 15.9553C159.263 15.1257 159.699 14.5593 160.208 14.1899L159.033 12.5715ZM157.074 15.2094C156.625 16.3251 156.419 17.6286 156.419 19.0909H158.419C158.419 17.807 158.601 16.7715 158.929 15.9553L157.074 15.2094ZM156.419 19.0909C156.419 20.5682 156.619 21.882 157.055 23.0041L158.919 22.28C158.598 21.4513 158.419 20.3977 158.419 19.0909H156.419ZM157.058 23.0119C157.501 24.1253 158.149 25.0362 159.031 25.68L160.21 24.0644C159.691 23.6854 159.25 23.1095 158.916 22.2722L157.058 23.0119ZM159.031 25.68C159.917 26.3265 160.947 26.6392 162.078 26.6392V24.6392C161.334 24.6392 160.726 24.4406 160.21 24.0644L159.031 25.68ZM162.078 26.6392C162.91 26.6392 163.691 26.4671 164.398 26.1013L163.479 24.3249C163.088 24.5272 162.629 24.6392 162.078 24.6392V26.6392ZM164.392 26.1045C165.109 25.7397 165.697 25.2094 166.149 24.532L164.485 23.4226C164.217 23.8247 163.886 24.1182 163.486 24.3217L164.392 26.1045ZM166.147 24.5353C166.612 23.843 166.899 23.0386 167.03 22.1494L165.052 21.8563C164.956 22.5011 164.76 23.0131 164.487 23.4193L166.147 24.5353ZM166.041 23.0028H171.751V21.0028H166.041V23.0028ZM170.753 21.9461C170.667 23.4597 170.258 24.7572 169.546 25.8661L171.229 26.9464C172.146 25.5174 172.646 23.8793 172.75 22.0596L170.753 21.9461ZM169.545 25.8677C168.844 26.9654 167.872 27.8316 166.603 28.4664L167.497 30.2552C169.068 29.4695 170.322 28.366 171.23 26.9448L169.545 25.8677ZM166.603 28.4664C165.348 29.0934 163.827 29.4261 162.007 29.4261V31.4261C164.07 31.4261 165.91 31.0486 167.497 30.2552L166.603 28.4664ZM187.231 8.18182H188.231V7.18182H187.231V8.18182ZM187.231 12.7273V13.7273H188.231V12.7273H187.231ZM174.092 12.7273H173.092V13.7273H174.092V12.7273ZM174.092 8.18182V7.18182H173.092V8.18182H174.092ZM177.075 2.95455V1.95455H176.075V2.95455H177.075ZM183.126 2.95455H184.126V1.95455H183.126V2.95455ZM183.381 24.6023L182.503 25.0812L182.51 25.0925L183.381 24.6023ZM184.092 25.2415L183.715 26.168L183.725 26.1719L184.092 25.2415ZM186.023 25.3551L186.188 26.3415L186.204 26.3389L186.22 26.3357L186.023 25.3551ZM186.677 25.2273L187.655 25.0205L187.453 24.0643L186.493 24.2444L186.677 25.2273ZM187.629 29.7301L187.927 30.6846L188.795 30.4133L188.607 29.5233L187.629 29.7301ZM186.35 30.0568L186.131 29.081L186.123 29.0828L186.116 29.0847L186.35 30.0568ZM184.347 30.2983L184.311 29.2989L184.308 29.2991L184.347 30.2983ZM180.512 29.7159L180.134 30.6416L180.137 30.6427L180.512 29.7159ZM177.969 27.642L178.809 27.0991L177.969 27.642ZM177.075 24.0909L178.075 24.0975V24.0909H177.075ZM186.231 8.18182V12.7273H188.231V8.18182H186.231ZM187.231 11.7273H174.092V13.7273H187.231V11.7273ZM175.092 12.7273V8.18182H173.092V12.7273H175.092ZM174.092 9.18182H187.231V7.18182H174.092V9.18182ZM177.075 3.95455H183.126V1.95455H177.075V3.95455ZM182.126 2.95455V23.2955H184.126V2.95455H182.126ZM182.126 23.2955C182.126 23.9352 182.22 24.5611 182.503 25.0811L184.259 24.1234C184.202 24.0184 184.126 23.7731 184.126 23.2955H182.126ZM182.51 25.0925C182.784 25.5795 183.189 25.9541 183.715 26.1679L184.468 24.315C184.388 24.2827 184.32 24.2311 184.253 24.112L182.51 25.0925ZM183.725 26.1719C184.176 26.3496 184.664 26.4261 185.171 26.4261V24.4261C184.864 24.4261 184.632 24.3796 184.458 24.3111L183.725 26.1719ZM185.171 26.4261C185.511 26.4261 185.85 26.3978 186.188 26.3415L185.859 24.3687C185.629 24.4071 185.399 24.4261 185.171 24.4261V26.4261ZM186.22 26.3357C186.502 26.2791 186.716 26.2374 186.861 26.2101L186.493 24.2444C186.335 24.2739 186.113 24.3175 185.827 24.3745L186.22 26.3357ZM185.698 25.4341L186.65 29.9369L188.607 29.5233L187.655 25.0205L185.698 25.4341ZM187.33 28.7756C187.066 28.8582 186.671 28.9601 186.131 29.081L186.569 31.0326C187.128 30.9073 187.585 30.7914 187.927 30.6846L187.33 28.7756ZM186.116 29.0847C185.651 29.1968 185.054 29.2721 184.311 29.2989L184.383 31.2976C185.212 31.2677 185.951 31.1819 186.585 31.0289L186.116 29.0847ZM184.308 29.2991C182.96 29.3516 181.828 29.1701 180.888 28.7891L180.137 30.6427C181.393 31.1519 182.818 31.3586 184.386 31.2975L184.308 29.2991ZM180.89 28.7902C179.98 28.4181 179.298 27.8553 178.809 27.0991L177.13 28.1849C177.853 29.3038 178.866 30.1235 180.134 30.6416L180.89 28.7902ZM178.809 27.0991C178.335 26.3656 178.066 25.3869 178.075 24.0975L176.075 24.0843C176.064 25.6548 176.392 27.0435 177.13 28.1849L178.809 27.0991ZM178.075 24.0909V2.95455H176.075V24.0909H178.075Z" fill="black" mask="url(#path-1-outside-1_31_3)"/>
</g>
<g filter="url(#filter1_d_31_3)">
<path d="M4.52841 30V0.90909H16.1761C18.3163 0.90909 20.1013 1.22633 21.5312 1.8608C22.9612 2.49527 24.036 3.37595 24.7557 4.50284C25.4754 5.62027 25.8352 6.90814 25.8352 8.36648C25.8352 9.50284 25.608 10.5019 25.1534 11.3636C24.6989 12.2159 24.0739 12.9167 23.2784 13.4659C22.4924 14.0057 21.5928 14.3892 20.5795 14.6165V14.9006C21.6875 14.9479 22.7244 15.2604 23.6903 15.8381C24.6657 16.4157 25.4564 17.2254 26.0625 18.267C26.6686 19.2992 26.9716 20.5303 26.9716 21.9602C26.9716 23.5038 26.5881 24.8816 25.821 26.0938C25.0634 27.2964 23.9413 28.2481 22.4545 28.9489C20.9678 29.6496 19.1354 30 16.9574 30H4.52841ZM10.679 24.9716H15.6932C17.4072 24.9716 18.6572 24.6449 19.4432 23.9915C20.2292 23.3286 20.6222 22.4479 20.6222 21.3494C20.6222 20.5445 20.428 19.8343 20.0398 19.2188C19.6515 18.6032 19.0975 18.1203 18.3778 17.7699C17.6676 17.4195 16.8201 17.2443 15.8352 17.2443H10.679V24.9716ZM10.679 13.0824H15.2386C16.0814 13.0824 16.8295 12.9356 17.483 12.642C18.1458 12.339 18.6667 11.9129 19.0455 11.3636C19.4337 10.8144 19.6278 10.1562 19.6278 9.3892C19.6278 8.33807 19.2538 7.49053 18.5057 6.84659C17.767 6.20265 16.7159 5.88068 15.3523 5.88068H10.679V13.0824ZM30.9737 30V0.90909H50.576V5.98011H37.1243V12.9119H49.5675V17.983H37.1243V24.929H50.6328V30H30.9737Z" fill="#F8C35E"/>
<path d="M65.2102 30.4261C62.9754 30.4261 61.053 29.9527 59.4432 29.0057C57.8428 28.0492 56.6117 26.7235 55.75 25.0284C54.8977 23.3333 54.4716 21.3826 54.4716 19.1761C54.4716 16.9413 54.9025 14.9811 55.7642 13.2955C56.6354 11.6004 57.8712 10.2794 59.4716 9.33239C61.072 8.37595 62.9754 7.89773 65.1818 7.89773C67.0852 7.89773 68.7519 8.24337 70.1818 8.93466C71.6117 9.62595 72.7434 10.5966 73.5767 11.8466C74.41 13.0966 74.8693 14.5644 74.9545 16.25H69.2443C69.0833 15.161 68.6572 14.285 67.9659 13.6222C67.2841 12.9498 66.3892 12.6136 65.2812 12.6136C64.3438 12.6136 63.5246 12.8693 62.8239 13.3807C62.1326 13.8826 61.5928 14.6165 61.2045 15.5824C60.8163 16.5483 60.6222 17.7178 60.6222 19.0909C60.6222 20.483 60.8116 21.6667 61.1903 22.642C61.5786 23.6174 62.1231 24.3608 62.8239 24.8722C63.5246 25.3835 64.3438 25.6392 65.2812 25.6392C65.9725 25.6392 66.5928 25.4972 67.142 25.2131C67.7008 24.929 68.16 24.517 68.5199 23.9773C68.8892 23.428 69.1307 22.7699 69.2443 22.0028H74.9545C74.8598 23.6695 74.4053 25.1373 73.5909 26.4062C72.786 27.6657 71.6733 28.6506 70.2528 29.3608C68.8324 30.071 67.1515 30.4261 65.2102 30.4261ZM88.6868 30.4261C86.4804 30.4261 84.5722 29.9574 82.9624 29.0199C81.362 28.0729 80.1262 26.7566 79.255 25.071C78.3838 23.3759 77.9482 21.411 77.9482 19.1761C77.9482 16.9223 78.3838 14.9527 79.255 13.267C80.1262 11.572 81.362 10.2557 82.9624 9.31818C84.5722 8.37121 86.4804 7.89773 88.6868 7.89773C90.8932 7.89773 92.7966 8.37121 94.397 9.31818C96.0069 10.2557 97.2474 11.572 98.1186 13.267C98.9898 14.9527 99.4254 16.9223 99.4254 19.1761C99.4254 21.411 98.9898 23.3759 98.1186 25.071C97.2474 26.7566 96.0069 28.0729 94.397 29.0199C92.7966 29.9574 90.8932 30.4261 88.6868 30.4261ZM88.7152 25.7386C89.719 25.7386 90.5571 25.4545 91.2294 24.8864C91.9018 24.3087 92.4084 23.5227 92.7493 22.5284C93.0997 21.5341 93.2749 20.4025 93.2749 19.1335C93.2749 17.8646 93.0997 16.733 92.7493 15.7386C92.4084 14.7443 91.9018 13.9583 91.2294 13.3807C90.5571 12.803 89.719 12.5142 88.7152 12.5142C87.7019 12.5142 86.8497 12.803 86.1584 13.3807C85.4766 13.9583 84.9605 14.7443 84.6101 15.7386C84.2692 16.733 84.0987 17.8646 84.0987 19.1335C84.0987 20.4025 84.2692 21.5341 84.6101 22.5284C84.9605 23.5227 85.4766 24.3087 86.1584 24.8864C86.8497 25.4545 87.7019 25.7386 88.7152 25.7386ZM109.411 17.3864V30H103.36V8.18182H109.127V12.0312H109.383C109.866 10.7623 110.675 9.75852 111.812 9.01989C112.948 8.27178 114.326 7.89773 115.945 7.89773C117.46 7.89773 118.781 8.22917 119.908 8.89205C121.035 9.55492 121.911 10.5019 122.536 11.733C123.161 12.9545 123.474 14.4129 123.474 16.108V30H117.423V17.1875C117.432 15.8523 117.091 14.8106 116.4 14.0625C115.709 13.3049 114.757 12.9261 113.545 12.9261C112.73 12.9261 112.011 13.1013 111.386 13.4517C110.77 13.8021 110.287 14.3134 109.937 14.9858C109.596 15.6487 109.421 16.4489 109.411 17.3864ZM138.186 30.4261C135.942 30.4261 134.01 29.9716 132.391 29.0625C130.781 28.1439 129.54 26.8466 128.669 25.1705C127.798 23.4848 127.362 21.4915 127.362 19.1903C127.362 16.946 127.798 14.9763 128.669 13.2812C129.54 11.5862 130.767 10.2652 132.348 9.31818C133.939 8.37121 135.804 7.89773 137.945 7.89773C139.384 7.89773 140.724 8.12973 141.964 8.59375C143.214 9.0483 144.304 9.73485 145.232 10.6534C146.169 11.572 146.898 12.7273 147.419 14.1193C147.94 15.5019 148.2 17.1212 148.2 18.9773V20.6392H129.777V16.8892H142.504C142.504 16.018 142.315 15.2462 141.936 14.5739C141.557 13.9015 141.032 13.3759 140.359 12.9972C139.696 12.6089 138.925 12.4148 138.044 12.4148C137.125 12.4148 136.311 12.6278 135.601 13.054C134.9 13.4706 134.351 14.0341 133.953 14.7443C133.555 15.4451 133.352 16.2263 133.342 17.0881V20.6534C133.342 21.733 133.541 22.6657 133.939 23.4517C134.346 24.2377 134.919 24.8438 135.658 25.2699C136.396 25.696 137.272 25.9091 138.286 25.9091C138.958 25.9091 139.573 25.8144 140.132 25.625C140.691 25.4356 141.169 25.1515 141.567 24.7727C141.964 24.3939 142.268 23.9299 142.476 23.3807L148.072 23.75C147.788 25.0947 147.206 26.2689 146.325 27.2727C145.454 28.267 144.327 29.0436 142.945 29.6023C141.571 30.1515 139.985 30.4261 138.186 30.4261ZM162.007 30.4261C159.772 30.4261 157.85 29.9527 156.24 29.0057C154.64 28.0492 153.409 26.7235 152.547 25.0284C151.695 23.3333 151.268 21.3826 151.268 19.1761C151.268 16.9413 151.699 14.9811 152.561 13.2955C153.432 11.6004 154.668 10.2794 156.268 9.33239C157.869 8.37595 159.772 7.89773 161.979 7.89773C163.882 7.89773 165.549 8.24337 166.979 8.93466C168.409 9.62595 169.54 10.5966 170.374 11.8466C171.207 13.0966 171.666 14.5644 171.751 16.25H166.041C165.88 15.161 165.454 14.285 164.763 13.6222C164.081 12.9498 163.186 12.6136 162.078 12.6136C161.141 12.6136 160.321 12.8693 159.621 13.3807C158.929 13.8826 158.39 14.6165 158.001 15.5824C157.613 16.5483 157.419 17.7178 157.419 19.0909C157.419 20.483 157.608 21.6667 157.987 22.642C158.375 23.6174 158.92 24.3608 159.621 24.8722C160.321 25.3835 161.141 25.6392 162.078 25.6392C162.769 25.6392 163.39 25.4972 163.939 25.2131C164.498 24.929 164.957 24.517 165.317 23.9773C165.686 23.428 165.928 22.7699 166.041 22.0028H171.751C171.657 23.6695 171.202 25.1373 170.388 26.4062C169.583 27.6657 168.47 28.6506 167.05 29.3608C165.629 30.071 163.948 30.4261 162.007 30.4261ZM187.231 8.18182V12.7273H174.092V8.18182H187.231ZM177.075 2.95455H183.126V23.2955C183.126 23.8542 183.211 24.2898 183.381 24.6023C183.552 24.9053 183.789 25.1184 184.092 25.2415C184.404 25.3646 184.764 25.4261 185.171 25.4261C185.455 25.4261 185.739 25.4025 186.023 25.3551C186.308 25.2983 186.525 25.2557 186.677 25.2273L187.629 29.7301C187.326 29.8248 186.899 29.9337 186.35 30.0568C185.801 30.1894 185.133 30.2699 184.347 30.2983C182.889 30.3551 181.611 30.161 180.512 29.7159C179.423 29.2708 178.576 28.5795 177.969 27.642C177.363 26.7045 177.065 25.5208 177.075 24.0909V2.95455Z" fill="black"/>
</g>
<defs>
<filter id="filter0_dd_31_3" x="0.52832" y="0.90918" width="191.1" height="37.5171" filterUnits="userSpaceOnUse" color-interpolation-filters="sRGB">
<feFlood flood-opacity="0" result="BackgroundImageFix"/>
<feColorMatrix in="SourceAlpha" type="matrix" values="0 0 0 0 0 0 0 0 0 0 0 0 0 0 0 0 0 0 127 0" result="hardAlpha"/>
<feOffset dy="4"/>
<feGaussianBlur stdDeviation="2"/>
<feComposite in2="hardAlpha" operator="out"/>
<feColorMatrix type="matrix" values="0 0 0 0 0 0 0 0 0 0 0 0 0 0 0 0 0 0 0.25 0"/>
<feBlend mode="normal" in2="BackgroundImageFix" result="effect1_dropShadow_31_3"/>
<feColorMatrix in="SourceAlpha" type="matrix" values="0 0 0 0 0 0 0 0 0 0 0 0 0 0 0 0 0 0 127 0" result="hardAlpha"/>
<feOffset dy="4"/>
<feGaussianBlur stdDeviation="2"/>
<feComposite in2="hardAlpha" operator="out"/>
<feColorMatrix type="matrix" values="0 0 0 0 0 0 0 0 0 0 0 0 0 0 0 0 0 0 0.25 0"/>
<feBlend mode="normal" in2="effect1_dropShadow_31_3" result="effect2_dropShadow_31_3"/>
<feBlend mode="normal" in="SourceGraphic" in2="effect2_dropShadow_31_3" result="shape"/>
</filter>
<filter id="filter1_d_31_3" x="0.52832" y="0.90918" width="191.1" height="37.5171" filterUnits="userSpaceOnUse" color-interpolation-filters="sRGB">
<feFlood flood-opacity="0" result="BackgroundImageFix"/>
<feColorMatrix in="SourceAlpha" type="matrix" values="0 0 0 0 0 0 0 0 0 0 0 0 0 0 0 0 0 0 127 0" result="hardAlpha"/>
<feOffset dy="4"/>
<feGaussianBlur stdDeviation="2"/>
<feComposite in2="hardAlpha" operator="out"/>
<feColorMatrix type="matrix" values="0 0 0 0 0 0 0 0 0 0 0 0 0 0 0 0 0 0 0.25 0"/>
<feBlend mode="normal" in2="BackgroundImageFix" result="effect1_dropShadow_31_3"/>
<feBlend mode="normal" in="SourceGraphic" in2="effect1_dropShadow_31_3" result="shape"/>
</filter>
</defs>
</svg>
